<?xml version="1.0" encoding="UTF-8"?>
<svg version="1.1" xmlns="http://www.w3.org/2000/svg" width="250" height="250">
<path d="M0 0 C3.47858637 3.68940979 4.32039998 6.38730083 4.1875 11.4375 C4.16945313 12.32953125 4.15140625 13.2215625 4.1328125 14.140625 C4.10960938 14.81609375 4.08640625 15.4915625 4.0625 16.1875 C0.18320505 14.7327644 -3.4208536 12.9376189 -7.0703125 10.9921875 C-9.05780705 9.98961326 -9.05780705 9.98961326 -11.9375 10.1875 C-12.2675 11.1775 -12.5975 12.1675 -12.9375 13.1875 C-12.12925781 13.38085938 -11.32101563 13.57421875 -10.48828125 13.7734375 C-9.41964844 14.03382812 -8.35101563 14.29421875 -7.25 14.5625 C-5.66638672 14.94535156 -5.66638672 14.94535156 -4.05078125 15.3359375 C-1.23343234 16.10655489 1.37918325 17.04248543 4.0625 18.1875 C4.63878458 31.37801383 4.63878458 31.37801383 1.0625 36.1875 C-2.99582727 39.64901444 -7.72820458 40.33485112 -12.9375 40.1875 C-16.93148352 39.3499402 -19.97352904 38.15147096 -22.875 35.25 C-25.12453306 30.88325935 -25.03160196 27.08080185 -24.9375 22.1875 C-24.2775 21.8575 -23.6175 21.5275 -22.9375 21.1875 C-20.94921875 22.1484375 -20.94921875 22.1484375 -18.625 23.5625 C-15.37450451 25.53818316 -12.70863245 26.61348692 -8.9375 27.1875 C-8.9375 26.1975 -8.9375 25.2075 -8.9375 24.1875 C-13.8875 22.5375 -18.8375 20.8875 -23.9375 19.1875 C-24.93556059 13.19913644 -25.54420457 7.41722162 -21.9375 2.1875 C-15.71157445 -3.70188903 -7.36794438 -4.54617845 0 0 Z " fill="#FB4405" transform="translate(48.9375,103.8125)"/>
<path d="M0 0 C0 1.98 0 3.96 0 6 C2.475 6.495 2.475 6.495 5 7 C5.98120464 10.05263664 5.98120464 11.94736336 5 15 C3.35 15 1.7 15 0 15 C0 19.29 0 23.58 0 28 C1.65 28 3.3 28 5 28 C6.125 34.625 6.125 34.625 5 38 C1.37 38 -2.26 38 -6 38 C-6 37.34 -6 36.68 -6 36 C-6.928125 35.9071875 -6.928125 35.9071875 -7.875 35.8125 C-10 35 -10 35 -11.12109375 32.796875 C-12.05018035 29.84031499 -12.23476453 27.52688173 -12.1875 24.4375 C-12.18105469 23.50808594 -12.17460937 22.57867187 -12.16796875 21.62109375 C-12.01753445 19.27361898 -11.66160428 17.24945456 -11 15 C-12.32 15 -13.64 15 -15 15 C-15.83211276 20.03854106 -16.1078534 24.8125662 -16.0625 29.9375 C-16.05798828 30.62134766 -16.05347656 31.30519531 -16.04882812 32.00976562 C-16.0371956 33.67321604 -16.01926694 35.3366205 -16 37 C-17.81181405 37.19401633 -19.62448532 37.38004375 -21.4375 37.5625 C-22.95150391 37.71912109 -22.95150391 37.71912109 -24.49609375 37.87890625 C-25.32238281 37.91886719 -26.14867187 37.95882812 -27 38 C-28.85286633 36.14713367 -28.1304783 33.10599551 -28.1328125 30.62890625 C-28.13410156 29.33275391 -28.13539063 28.03660156 -28.13671875 26.70117188 C-28.13462402 26.0223999 -28.1325293 25.34362793 -28.13037109 24.64428711 C-28.1250313 22.57463211 -28.13031193 20.505195 -28.13671875 18.43554688 C-28.13542969 17.13810547 -28.13414062 15.84066406 -28.1328125 14.50390625 C-28.13168457 13.30580322 -28.13055664 12.1077002 -28.12939453 10.87329102 C-28 8 -28 8 -27 6 C-21.66666667 6 -16.33333333 6 -11 6 C-11 4.35 -11 2.7 -11 1 C-3.57142857 -1.42857143 -3.57142857 -1.42857143 0 0 Z " fill="#FEFDF0" transform="translate(199,104)"/>
<path d="M0 0 C3.3 0 6.6 0 10 0 C10 0.66 10 1.32 10 2 C10.515625 1.67 11.03125 1.34 11.5625 1 C14.88247788 -0.36204221 17.44186248 -0.31769085 21 0 C24.1850357 1.76015131 24.83296972 2.49890916 26 6 C26.22745382 9.30859291 26.18515349 12.62188358 26.1875 15.9375 C26.19974609 16.84435547 26.21199219 17.75121094 26.22460938 18.68554688 C26.22750977 19.99942383 26.22750977 19.99942383 26.23046875 21.33984375 C26.23457764 22.13769287 26.23868652 22.93554199 26.24291992 23.75756836 C25.97119324 26.26591971 25.31317577 27.8570494 24 30 C20.7789089 32.30077936 17.87720334 32.32997475 14 32 C13.01 31.34 12.02 30.68 11 30 C10.67 32.97 10.34 35.94 10 39 C6.7 39 3.4 39 0 39 C-0.76870915 34.22934676 -1.12830025 29.65458673 -1.1328125 24.82421875 C-1.13376923 24.17298538 -1.13472595 23.52175201 -1.13571167 22.8507843 C-1.13638661 21.48865664 -1.13458067 20.12652562 -1.13037109 18.7644043 C-1.12496909 16.67554618 -1.13036148 14.5868988 -1.13671875 12.49804688 C-1.13542969 11.18255859 -1.13414063 9.86707031 -1.1328125 8.51171875 C-1.13168457 7.30990967 -1.13055664 6.10810059 -1.12939453 4.86987305 C-1 2 -1 2 0 0 Z M10 9 C10 13.29 10 17.58 10 22 C11.65 22 13.3 22 15 22 C15 17.71 15 13.42 15 9 C13.35 9 11.7 9 10 9 Z " fill="#FE4201" transform="translate(56,110)"/>
<path d="M0 0 C5.25976747 1.84553244 5.25976747 1.84553244 7.12646484 4.75683594 C8.1853727 7.47602134 8.32101531 9.72514638 8.4140625 12.640625 C8.45273438 13.71054688 8.49140625 14.78046875 8.53125 15.8828125 C8.5621875 16.99398437 8.593125 18.10515625 8.625 19.25 C8.66367188 20.37664062 8.70234375 21.50328125 8.7421875 22.6640625 C8.83636983 25.44244109 8.91927028 28.22119799 9 31 C5.37 31 1.74 31 -2 31 C-2.33 30.34 -2.66 29.68 -3 29 C-3.53625 29.495 -4.0725 29.99 -4.625 30.5 C-7.74008151 32.4674199 -9.37170989 32.5923739 -13 32 C-15.875 30.1875 -15.875 30.1875 -18 27 C-18.41111401 23.2947699 -18.29247535 19.71118727 -18 16 C-12.91059256 13.94637945 -8.45479185 12.56820748 -3 12 C-3 11.01 -3 10.02 -3 9 C-4.32 9 -5.64 9 -7 9 C-7 9.99 -7 10.98 -7 12 C-10.63 12 -14.26 12 -18 12 C-18.3125 9.3125 -18.3125 9.3125 -18 6 C-12.52284316 -0.48610679 -8.13857957 -0.64282152 0 0 Z M-6 19 C-6.33 19.99 -6.66 20.98 -7 22 C-5.68 22 -4.36 22 -3 22 C-3 21.01 -3 20.02 -3 19 C-3.99 19 -4.98 19 -6 19 Z " fill="#FC4405" transform="translate(103,110)"/>
<path d="M0 0 C3.3 0 6.6 0 10 0 C11.58403524 1.58403524 11.21974935 3.2771638 11.31640625 5.47265625 C11.37924805 6.82133789 11.37924805 6.82133789 11.44335938 8.19726562 C11.48267578 9.14279297 11.52199219 10.08832031 11.5625 11.0625 C11.60568359 12.01189453 11.64886719 12.96128906 11.69335938 13.93945312 C11.79979276 16.29281353 11.90181008 18.64628354 12 21 C12.66386719 20.37351562 13.32773438 19.74703125 14.01171875 19.1015625 C14.89472656 18.28429687 15.77773437 17.46703125 16.6875 16.625 C17.55761719 15.81289062 18.42773438 15.00078125 19.32421875 14.1640625 C21.86371107 12.11022491 23.92025866 11.0099332 27 10 C25.87007235 12.86827787 24.69344982 15.61310036 23.3125 18.375 C21.1850472 24.25082202 22.59902767 28.31367783 25.0625 33.8125 C25.42472656 34.56144531 25.78695312 35.31039062 26.16015625 36.08203125 C27 38 27 38 27 40 C22.92623969 38.38989473 20.23492931 35.46177729 17.25 32.375 C16.74339844 31.859375 16.23679688 31.34375 15.71484375 30.8125 C14.47196098 29.54616661 13.23534724 28.2736856 12 27 C11.67 31.29 11.34 35.58 11 40 C7.37 40 3.74 40 0 40 C0 26.8 0 13.6 0 0 Z " fill="#FE480A" transform="translate(143,101)"/>
<path d="M0 0 C1.18142578 0.01740234 1.18142578 0.01740234 2.38671875 0.03515625 C3.16660156 0.04417969 3.94648437 0.05320312 4.75 0.0625 C5.90048828 0.07990234 5.90048828 0.07990234 7.07421875 0.09765625 C9.08624467 0.09765625 11.10004547 0.09631782 13.109375 -0.0078125 C18.59110187 -0.22961648 18.59110187 -0.22961648 21.01171875 1.41015625 C23.15692076 4.8172418 23.20955052 7.80691698 23.19921875 11.72265625 C23.20308594 13.19605469 23.20308594 13.19605469 23.20703125 14.69921875 C23.07421875 17.09765625 23.07421875 17.09765625 22.07421875 18.09765625 C20.57683751 18.19556195 19.07478983 18.22740489 17.57421875 18.22265625 C16.75953125 18.22523438 15.94484375 18.2278125 15.10546875 18.23046875 C13.07421875 18.09765625 13.07421875 18.09765625 12.07421875 17.09765625 C11.93306714 14.42706774 12.03174768 11.77333387 12.07421875 9.09765625 C10.75421875 9.09765625 9.43421875 9.09765625 8.07421875 9.09765625 C8.07421875 16.35765625 8.07421875 23.61765625 8.07421875 31.09765625 C4.77421875 31.09765625 1.47421875 31.09765625 -1.92578125 31.09765625 C-2.64922141 23.66947602 -3.03181227 16.30799921 -3.05078125 8.84765625 C-3.05529297 8.09685791 -3.05980469 7.34605957 -3.06445312 6.57250977 C-3.04667675 0.15449679 -3.04667675 0.15449679 0 0 Z " fill="#FE4100" transform="translate(116.92578125,109.90234375)"/>
<path d="M0 0 C0 1.98 0 3.96 0 6 C0.804375 6.144375 1.60875 6.28875 2.4375 6.4375 C5 7 5 7 6 8 C6.04092937 10.33297433 6.04241723 12.66705225 6 15 C4.02 15 2.04 15 0 15 C0.185625 15.845625 0.37125 16.69125 0.5625 17.5625 C1.03529632 21.2773282 0.66064631 24.32974273 0 28 C1.65 28 3.3 28 5 28 C7.125 34.75 7.125 34.75 6 37 C2.25801961 37.70603404 -1.18792739 38 -5 38 C-5 37.34 -5 36.68 -5 36 C-5.93392578 35.85498047 -5.93392578 35.85498047 -6.88671875 35.70703125 C-9 35 -9 35 -10.8125 31.6875 C-12.68625413 26.15690313 -11.78552595 20.67850085 -11 15 C-11.99 15 -12.98 15 -14 15 C-14.33 12.36 -14.66 9.72 -15 7 C-13.68 6.67 -12.36 6.34 -11 6 C-11 4.35 -11 2.7 -11 1 C-3.57142857 -1.42857143 -3.57142857 -1.42857143 0 0 Z " fill="#FEFDEF" transform="translate(220,104)"/>
<path d="M0 0 C2.64 0 5.28 0 8 0 C8 12.21 8 24.42 8 37 C5.36 37 2.72 37 0 37 C0 24.79 0 12.58 0 0 Z " fill="#FF4100" transform="translate(144,103)"/>
<path d="M0 0 C3.3 0 6.6 0 10 0 C10 0.66 10 1.32 10 2 C10.515625 1.67 11.03125 1.34 11.5625 1 C14.84447094 -0.34644962 17.48432783 -0.25568525 21 0 C21.99 0.66 22.98 1.32 24 2 C23.67 2.66 23.34 3.32 23 4 C22.01 3.34 21.02 2.68 20 2 C15.90080096 2.29812357 12.54387321 2.87367607 9 5 C9 4.01 9 3.02 9 2 C6.36 2 3.72 2 1 2 C1 13.55 1 25.1 1 37 C3.31 37 5.62 37 8 37 C8.33 33.7 8.66 30.4 9 27 C10.32 27.66 11.64 28.32 13 29 C15.59154919 29.24029959 15.59154919 29.24029959 18.25 29.125 C19.58804688 29.09792969 19.58804688 29.09792969 20.953125 29.0703125 C21.62859375 29.04710937 22.3040625 29.02390625 23 29 C24.29235715 24.08497242 24.11135517 19.22709898 24.0625 14.1875 C24.05798828 13.30384766 24.05347656 12.42019531 24.04882812 11.50976562 C24.03709866 9.33981441 24.01916495 7.16989828 24 5 C24.66 5.33 25.32 5.66 26 6 C26.05819424 9.24992446 26.09366116 12.49971435 26.125 15.75 C26.14175781 16.67039062 26.15851563 17.59078125 26.17578125 18.5390625 C26.18222656 19.42851562 26.18867187 20.31796875 26.1953125 21.234375 C26.20578613 22.05131836 26.21625977 22.86826172 26.22705078 23.70996094 C25.9748104 26.25406282 25.33568542 27.83270626 24 30 C20.7789089 32.30077936 17.87720334 32.32997475 14 32 C13.01 31.34 12.02 30.68 11 30 C10.67 32.97 10.34 35.94 10 39 C6.7 39 3.4 39 0 39 C-0.76870915 34.22934676 -1.12830025 29.65458673 -1.1328125 24.82421875 C-1.13376923 24.17298538 -1.13472595 23.52175201 -1.13571167 22.8507843 C-1.13638661 21.48865664 -1.13458067 20.12652562 -1.13037109 18.7644043 C-1.12496909 16.67554618 -1.13036148 14.5868988 -1.13671875 12.49804688 C-1.13542969 11.18255859 -1.13414063 9.86707031 -1.1328125 8.51171875 C-1.13168457 7.30990967 -1.13055664 6.10810059 -1.12939453 4.86987305 C-1 2 -1 2 0 0 Z " fill="#F9531A" transform="translate(56,110)"/>
<path d="M0 0 C1.18142578 0.01740234 1.18142578 0.01740234 2.38671875 0.03515625 C3.16660156 0.04417969 3.94648437 0.05320312 4.75 0.0625 C5.90048828 0.07990234 5.90048828 0.07990234 7.07421875 0.09765625 C9.08624467 0.09765625 11.10004547 0.09631782 13.109375 -0.0078125 C18.59110187 -0.22961648 18.59110187 -0.22961648 21.01171875 1.41015625 C23.18059271 4.85483842 23.18323969 7.83087633 23.13671875 11.78515625 C23.12769531 12.77902344 23.11867187 13.77289063 23.109375 14.796875 C23.09777344 15.55613281 23.08617187 16.31539062 23.07421875 17.09765625 C22.41421875 17.09765625 21.75421875 17.09765625 21.07421875 17.09765625 C21.09742188 16.50597656 21.120625 15.91429688 21.14453125 15.3046875 C21.24793304 10.77716622 21.25374027 7.20028499 19.07421875 3.09765625 C18.74421875 2.76765625 18.41421875 2.43765625 18.07421875 2.09765625 C14.00142186 2.48188237 10.60847757 2.97710096 7.07421875 5.09765625 C7.07421875 4.10765625 7.07421875 3.11765625 7.07421875 2.09765625 C4.43421875 2.09765625 1.79421875 2.09765625 -0.92578125 2.09765625 C-0.92578125 11.33765625 -0.92578125 20.57765625 -0.92578125 30.09765625 C1.71421875 30.09765625 4.35421875 30.09765625 7.07421875 30.09765625 C7.07421875 22.83765625 7.07421875 15.57765625 7.07421875 8.09765625 C9.05421875 8.09765625 11.03421875 8.09765625 13.07421875 8.09765625 C13.07421875 11.06765625 13.07421875 14.03765625 13.07421875 17.09765625 C12.74421875 17.09765625 12.41421875 17.09765625 12.07421875 17.09765625 C12.07421875 14.45765625 12.07421875 11.81765625 12.07421875 9.09765625 C10.75421875 9.09765625 9.43421875 9.09765625 8.07421875 9.09765625 C8.07421875 16.35765625 8.07421875 23.61765625 8.07421875 31.09765625 C4.77421875 31.09765625 1.47421875 31.09765625 -1.92578125 31.09765625 C-2.64922141 23.66947602 -3.03181227 16.30799921 -3.05078125 8.84765625 C-3.05529297 8.09685791 -3.05980469 7.34605957 -3.06445312 6.57250977 C-3.04667675 0.15449679 -3.04667675 0.15449679 0 0 Z " fill="#F55017" transform="translate(116.92578125,109.90234375)"/>
<path d="M0 0 C3.3 0 6.6 0 10 0 C11.58403524 1.58403524 11.21974935 3.2771638 11.31640625 5.47265625 C11.37924805 6.82133789 11.37924805 6.82133789 11.44335938 8.19726562 C11.48267578 9.14279297 11.52199219 10.08832031 11.5625 11.0625 C11.60568359 12.01189453 11.64886719 12.96128906 11.69335938 13.93945312 C11.79979276 16.29281353 11.90181008 18.64628354 12 21 C12.99 21 13.98 21 15 21 C13.3545622 22.68762851 11.68711423 24.3540349 10 26 C9.67 26 9.34 26 9 26 C9 18.08 9 10.16 9 2 C6.36 2 3.72 2 1 2 C1.33 14.54 1.66 27.08 2 40 C1.34 40 0.68 40 0 40 C0 26.8 0 13.6 0 0 Z " fill="#F74E17" transform="translate(143,101)"/>
<path d="M0 0 C2.97 0 5.94 0 9 0 C10.09658936 3.28976808 9.79953138 4.71303767 9 8 C5.7 8 2.4 8 -1 8 C-2 4 -2 4 0 0 Z " fill="#FEFDF2" transform="translate(173,101)"/>
<path d="M0 0 C5.26964527 2.63482263 8.97903554 6.79943911 13 11 C13.66 10.34 14.32 9.68 15 9 C15.66 11.31 16.32 13.62 17 16 C12.92623969 14.38989473 10.23492931 11.46177729 7.25 8.375 C6.74339844 7.859375 6.23679688 7.34375 5.71484375 6.8125 C4.47196098 5.54616661 3.23534724 4.2736856 2 3 C1.67 7.29 1.34 11.58 1 16 C-1.97 16 -4.94 16 -8 16 C-8 15.67 -8 15.34 -8 15 C-5.69 15 -3.38 15 -1 15 C-1.01160156 14.08476562 -1.02320313 13.16953125 -1.03515625 12.2265625 C-1.04417969 11.03804687 -1.05320313 9.84953125 -1.0625 8.625 C-1.07410156 7.44164062 -1.08570313 6.25828125 -1.09765625 5.0390625 C-1 2 -1 2 0 0 Z " fill="#FD561D" transform="translate(153,125)"/>
<path d="M0 0 C-0.33 1.98 -0.66 3.96 -1 6 C-2.98 6 -4.96 6 -7 6 C-7.33 4.35 -7.66 2.7 -8 1 C-3.375 -1.125 -3.375 -1.125 0 0 Z M-5 1 C-5.33 1.99 -5.66 2.98 -6 4 C-4.68 4 -3.36 4 -2 4 C-2 3.01 -2 2.02 -2 1 C-2.99 1 -3.98 1 -5 1 Z " fill="#F74F17" transform="translate(102,128)"/>
<path d="M0 0 C3.96 1.98 3.96 1.98 8 4 C7.01 4.495 7.01 4.495 6 5 C3.875 4.0625 3.875 4.0625 2 3 C1.87530901 8.57830016 1.87530901 8.57830016 3 14 C0 12 0 12 -0.6875 10.3125 C-1.11071894 7.18067988 -1.11906028 4.15509751 -1 1 C-0.67 0.67 -0.34 0.34 0 0 Z " fill="#F75118" transform="translate(25,125)"/>
<path d="M0 0 C1.14626322 0.97866338 2.29199788 1.95794587 3.4375 2.9375 C4.07558594 3.48277344 4.71367187 4.02804688 5.37109375 4.58984375 C6.26991149 5.36795695 7.15936528 6.15936528 8 7 C8.66 6.34 9.32 5.68 10 5 C10.66 7.31 11.32 9.62 12 12 C8.60140297 10.53033642 6.35036291 8.61962486 3.75 6 C3.04359375 5.29875 2.3371875 4.5975 1.609375 3.875 C0 2 0 2 0 0 Z " fill="#FB7744" transform="translate(158,129)"/>
<path d="M0 0 C-0.66 1.65 -1.32 3.3 -2 5 C-2.99 5 -3.98 5 -5 5 C-7.68767578 7.43750025 -7.68767578 7.43750025 -10 10 C-10.66 9.67 -11.32 9.34 -12 9 C-10.71142987 7.68445979 -9.41904109 6.37265903 -8.125 5.0625 C-7.04605469 3.96615234 -7.04605469 3.96615234 -5.9453125 2.84765625 C-3.85726291 0.86442843 -2.89054652 0 0 0 Z " fill="#FC7541" transform="translate(170,111)"/>
</svg>
